<?xml version="1.0" encoding="UTF-8"?>
<svg version="1.1" xmlns="http://www.w3.org/2000/svg" width="101" height="90">
<path d="M0 0 C1.68106339 0.00022659 1.68106339 0.00022659 3.39608765 0.00045776 C5.18703354 0.01594162 5.18703354 0.01594162 7.01416016 0.03173828 C8.24864899 0.03456818 9.48313782 0.03739807 10.7550354 0.04031372 C14.68786415 0.05148556 18.62046303 0.07658514 22.55322266 0.10205078 C25.22379224 0.11321253 27.89435967 0.12120959 30.56494141 0.12939453 C37.10279005 0.15141517 43.64046741 0.18592487 50.17822266 0.22705078 C50.17822266 6.49705078 50.17822266 12.76705078 50.17822266 19.22705078 C53.14822266 19.22705078 56.11822266 19.22705078 59.17822266 19.22705078 C62.04852134 21.02098746 63.66953904 22.20968354 65.17822266 25.22705078 C65.25017134 28.11075411 65.27113974 30.96944742 65.24072266 33.85205078 C65.23621094 34.65384766 65.23169922 35.45564453 65.22705078 36.28173828 C65.21525434 38.26354084 65.19731871 40.24530511 65.17822266 42.22705078 C65.80470703 42.20384766 66.43119141 42.18064453 67.07666016 42.15673828 C67.89392578 42.13869141 68.71119141 42.12064453 69.55322266 42.10205078 C70.36533203 42.07884766 71.17744141 42.05564453 72.01416016 42.03173828 C74.17822266 42.22705078 74.17822266 42.22705078 76.17822266 44.22705078 C76.43701172 46.35009766 76.43701172 46.35009766 76.44384766 48.94580078 C76.44771484 50.34378906 76.44771484 50.34378906 76.45166016 51.77001953 C76.44392578 52.74583984 76.43619141 53.72166016 76.42822266 54.72705078 C76.43982422 56.19078125 76.43982422 56.19078125 76.45166016 57.68408203 C76.44908203 58.61607422 76.44650391 59.54806641 76.44384766 60.50830078 C76.4415918 61.36488281 76.43933594 62.22146484 76.43701172 63.10400391 C76.17822266 65.22705078 76.17822266 65.22705078 74.17822266 67.22705078 C72.01416016 67.42236328 72.01416016 67.42236328 69.55322266 67.35205078 C68.73595703 67.33400391 67.91869141 67.31595703 67.07666016 67.29736328 C66.45017578 67.27416016 65.82369141 67.25095703 65.17822266 67.22705078 C65.22462891 68.39623047 65.27103516 69.56541016 65.31884766 70.77001953 C65.3563786 72.31817098 65.39277734 73.86635017 65.42822266 75.41455078 C65.46173828 76.18347656 65.49525391 76.95240234 65.52978516 77.74462891 C65.59888304 81.76958086 65.49577269 83.72513802 63.28759766 87.21533203 C59.6652582 90.66997058 56.64326602 90.38608596 51.87036133 90.40405273 C50.74080269 90.41390953 50.74080269 90.41390953 49.58842468 90.42396545 C47.09101262 90.4437106 44.59366073 90.45536377 42.09619141 90.46533203 C41.24372644 90.46940756 40.39126148 90.47348309 39.51296425 90.47768211 C35.00091417 90.49854815 30.48889455 90.51284748 25.97680664 90.5222168 C21.31601126 90.53328178 16.65569325 90.56768093 11.99506664 90.6073885 C8.41167818 90.63353285 4.82840382 90.64190668 1.24492836 90.64549828 C-0.47307242 90.65036999 -2.19106791 90.66200064 -3.9089756 90.68053627 C-6.31494597 90.70488189 -8.71967662 90.70397157 -11.12573242 90.69702148 C-11.83397156 90.70983154 -12.54221069 90.7226416 -13.27191162 90.73583984 C-18.05372119 90.6855526 -20.46319739 89.60842948 -23.82177734 86.22705078 C-25.19576712 83.47907124 -24.97182005 81.25182088 -24.9987793 78.17602539 C-25.01803215 76.26780251 -25.01803215 76.26780251 -25.03767395 74.32102966 C-25.04584504 72.92382192 -25.05328806 71.52660976 -25.06005859 70.12939453 C-25.06413412 69.42534548 -25.06820965 68.72129642 -25.07240868 67.99591255 C-25.09328195 64.2637982 -25.10757376 60.53172067 -25.11694336 56.79956055 C-25.12796349 52.9619265 -25.16230762 49.12487943 -25.20211506 45.28745174 C-25.22839797 42.32325745 -25.23664583 39.35919991 -25.24022484 36.39489937 C-25.24506694 34.98163487 -25.25661248 33.56837549 -25.27526283 32.15522575 C-25.39575445 22.41378961 -24.86927038 14.88166777 -18.32177734 7.35205078 C-17.08427734 6.30017578 -17.08427734 6.30017578 -15.82177734 5.22705078 C-15.18240234 4.67017578 -14.54302734 4.11330078 -13.88427734 3.53955078 C-9.49857738 0.7486508 -5.12840801 -0.02320547 0 0 Z M-18.07568359 9.57861328 C-18.7234375 10.70396484 -18.7234375 10.70396484 -19.38427734 11.85205078 C-19.83931641 12.60744141 -20.29435547 13.36283203 -20.76318359 14.14111328 C-22.7448436 18.0459341 -22.96129092 21.1449036 -22.9987793 25.47094727 C-23.01161453 26.75915878 -23.02444977 28.0473703 -23.03767395 29.37461853 C-23.04584004 30.78245662 -23.05328403 32.19029906 -23.06005859 33.59814453 C-23.06413412 34.30751726 -23.06820965 35.01688999 -23.07240868 35.74775887 C-23.09324549 39.50004915 -23.10755937 43.25230309 -23.11694336 47.00463867 C-23.12802316 50.87972352 -23.16244703 54.75423656 -23.20211506 58.62911892 C-23.22825 61.61026583 -23.23663219 64.59127554 -23.24022484 67.57252693 C-23.24509633 69.00108784 -23.2567265 70.4296424 -23.27526283 71.85809135 C-23.29959047 73.85650698 -23.29627576 75.8552012 -23.29174805 77.85375977 C-23.29761429 78.99054672 -23.30348053 80.12733368 -23.30952454 81.29856873 C-23.01699347 84.28058541 -23.01699347 84.28058541 -21.25759888 86.59303284 C-17.99535745 88.78143661 -15.17707783 88.78870569 -11.37866211 88.74462891 C-10.26329575 88.75514282 -10.26329575 88.75514282 -9.12539673 88.76586914 C-6.67094411 88.78345324 -4.21764765 88.7718246 -1.76318359 88.75830078 C-0.05451741 88.76099588 1.65414729 88.76487846 3.36280823 88.76989746 C6.94311125 88.77579328 10.52301491 88.76722817 14.10327148 88.74853516 C18.68788982 88.72576253 23.27157062 88.73885699 27.85615444 88.76282501 C31.38469983 88.77729563 34.91302386 88.77267097 38.441576 88.76231384 C40.13163426 88.75964914 41.82171273 88.76290731 43.51174736 88.77223206 C45.87694193 88.78241693 48.24063022 88.76687076 50.60571289 88.74462891 C51.3014592 88.75272583 51.99720551 88.76082275 52.71403503 88.76916504 C57.44037142 88.68702146 59.86995302 87.58564896 63.17822266 84.22705078 C63.85380061 82.22472108 63.85380061 82.22472108 63.66650391 80.11767578 C63.65401611 79.43737305 63.64152832 78.75707031 63.62866211 78.05615234 C63.58314209 77.20504883 63.53762207 76.35394531 63.49072266 75.47705078 C63.38759766 72.75455078 63.28447266 70.03205078 63.17822266 67.22705078 C52.28822266 66.73205078 52.28822266 66.73205078 41.17822266 66.22705078 C41.17822266 58.63705078 41.17822266 51.04705078 41.17822266 43.22705078 C48.43822266 42.89705078 55.69822266 42.56705078 63.17822266 42.22705078 C63.26072266 39.69017578 63.34322266 37.15330078 63.42822266 34.53955078 C63.46463867 33.7497583 63.50105469 32.95996582 63.53857422 32.14624023 C63.54856445 31.50904053 63.55855469 30.87184082 63.56884766 30.21533203 C63.58979492 29.57120361 63.61074219 28.9270752 63.63232422 28.26342773 C62.93267293 25.12590547 61.40498516 23.50898786 59.17822266 21.22705078 C56.32745014 20.50675642 56.32745014 20.50675642 53.12451172 20.65942383 C51.90354797 20.65980148 50.68258423 20.66017914 49.42462158 20.66056824 C47.45413849 20.69927788 47.45413849 20.69927788 45.44384766 20.73876953 C44.08194274 20.74809966 42.72002099 20.75521484 41.35809326 20.76020813 C37.78034814 20.77926305 34.20362439 20.82834812 30.62628174 20.88372803 C26.97316301 20.93495467 23.31987858 20.95772929 19.66650391 20.98291016 C12.50327877 21.03647065 5.34089404 21.12176232 -1.82177734 21.22705078 C-1.82177734 20.56705078 -1.82177734 19.90705078 -1.82177734 19.22705078 C14.67822266 19.22705078 31.17822266 19.22705078 48.17822266 19.22705078 C48.17822266 13.61705078 48.17822266 8.00705078 48.17822266 2.22705078 C40.6709589 2.10291011 33.16430041 2.01245314 25.65625 1.95239258 C23.10536279 1.92733951 20.5545467 1.8932875 18.00390625 1.84985352 C14.32485339 1.78879934 10.64675445 1.7607473 6.96728516 1.73876953 C5.83771393 1.7129631 4.7081427 1.68715668 3.54434204 1.66056824 C-4.87359723 1.65762564 -12.08066897 3.32384933 -18.07568359 9.57861328 Z M42.17822266 45.22705078 C42.07962134 46.63053813 42.04743329 48.03885555 42.04541016 49.44580078 C42.04412109 50.29529297 42.04283203 51.14478516 42.04150391 52.02001953 C42.04537109 52.91333984 42.04923828 53.80666016 42.05322266 54.72705078 C42.04935547 55.62037109 42.04548828 56.51369141 42.04150391 57.43408203 C42.04279297 58.28357422 42.04408203 59.13306641 42.04541016 60.00830078 C42.04653809 60.79269531 42.04766602 61.57708984 42.04882812 62.38525391 C41.97714824 64.24458066 41.97714824 64.24458066 43.17822266 65.22705078 C45.38472922 65.32717479 47.59444652 65.35786258 49.80322266 65.35986328 C50.46531738 65.36082001 51.12741211 65.36177673 51.80957031 65.36276245 C53.21175227 65.36344404 54.61393736 65.3615912 56.01611328 65.35742188 C58.16917979 65.35207325 60.32203768 65.35736748 62.47509766 65.36376953 C63.83447312 65.36310875 65.19384845 65.36182758 66.55322266 65.35986328 C67.79845703 65.35873535 69.04369141 65.35760742 70.32666016 65.35644531 C73.07727696 65.55277205 73.07727696 65.55277205 74.17822266 64.22705078 C74.27682397 62.82356343 74.30901202 61.41524601 74.31103516 60.00830078 C74.31232422 59.15880859 74.31361328 58.30931641 74.31494141 57.43408203 C74.30914062 56.09410156 74.30914062 56.09410156 74.30322266 54.72705078 C74.30708984 53.83373047 74.31095703 52.94041016 74.31494141 52.02001953 C74.31365234 51.17052734 74.31236328 50.32103516 74.31103516 49.44580078 C74.30934326 48.26920898 74.30934326 48.26920898 74.30761719 47.06884766 C74.37929707 45.2095209 74.37929707 45.2095209 73.17822266 44.22705078 C70.9717161 44.12692677 68.76199879 44.09623898 66.55322266 44.09423828 C65.56008057 44.09280319 65.56008057 44.09280319 64.546875 44.09133911 C63.14469305 44.09065752 61.74250795 44.09251036 60.34033203 44.09667969 C58.18726552 44.10202832 56.03440763 44.09673409 53.88134766 44.09033203 C52.52197219 44.09099282 51.16259686 44.09227399 49.80322266 44.09423828 C47.93537109 44.09593018 47.93537109 44.09593018 46.02978516 44.09765625 C43.27916835 43.90132951 43.27916835 43.90132951 42.17822266 45.22705078 Z " fill="#FFFFFF" transform="translate(24.82177734375,-0.22705078125)"/>
</svg>
